<!-- Simple SVG favicon -->
<svg xmlns="http://www.w3.org/2000/svg" viewBox="0 0 32 32" width="32" height="32">
  <rect width="32" height="32" fill="#2563eb" rx="6"/>
  <path d="M8 20a2 2 0 1 1-4 0 2 2 0 0 1 4 0zm16 0a2 2 0 1 1-4 0 2 2 0 0 1 4 0z" fill="#ffffff"/>
  <path d="M16 18V8a1 1 0 0 0-1-1H7a1 1 0 0 0-1 1v10a1 1 0 0 0 1 1h1m8-1a1 1 0 0 1-1 1h-3m4-1v6a1 1 0 0 1-1 1h2.586a1 1 0 0 0 .707-.293l2.414-2.414A1 1 0 0 0 26 18v-8a1 1 0 0 0-1-1h-1m-6 9a1 1 0 0 0 1 1h1" fill="none" stroke="#ffffff" stroke-width="1.5"/>
</svg>